<mxfile host="app.diagrams.net" modified="2023-04-08T05:04:09.501Z" agent="Mozilla/5.0 (Windows NT 10.0; Win64; x64) AppleWebKit/537.36 (KHTML, like Gecko) Chrome/111.0.0.0 Safari/537.36" etag="FLTcE8ohooR6tVverF00" version="21.1.5" type="github" pages="2">
  <diagram id="4FNzJY2WfAGwwCzfQxZ5" name="Page-1">
    <mxGraphModel dx="1434" dy="764" grid="1" gridSize="10" guides="1" tooltips="1" connect="1" arrows="1" fold="1" page="1" pageScale="1" pageWidth="827" pageHeight="1169" math="0" shadow="0">
      <root>
        <mxCell id="0" />
        <mxCell id="1" parent="0" />
        <mxCell id="CcalwXsnnFqxF4iZxxZo-19" value="" style="edgeStyle=orthogonalEdgeStyle;rounded=0;orthogonalLoop=1;jettySize=auto;html=1;" parent="1" source="CcalwXsnnFqxF4iZxxZo-17" target="CcalwXsnnFqxF4iZxxZo-18" edge="1">
          <mxGeometry relative="1" as="geometry" />
        </mxCell>
        <mxCell id="CcalwXsnnFqxF4iZxxZo-17" value="Cliente" style="shape=umlActor;verticalLabelPosition=bottom;verticalAlign=top;html=1;outlineConnect=0;shadow=0;sketch=0;" parent="1" vertex="1">
          <mxGeometry x="80" y="360" width="40" height="80" as="geometry" />
        </mxCell>
        <mxCell id="CcalwXsnnFqxF4iZxxZo-42" value="" style="edgeStyle=orthogonalEdgeStyle;rounded=0;orthogonalLoop=1;jettySize=auto;html=1;" parent="1" source="CcalwXsnnFqxF4iZxxZo-18" target="CcalwXsnnFqxF4iZxxZo-41" edge="1">
          <mxGeometry relative="1" as="geometry" />
        </mxCell>
        <mxCell id="CcalwXsnnFqxF4iZxxZo-18" value="Fotos documento" style="whiteSpace=wrap;html=1;shadow=0;verticalAlign=middle;sketch=0;" parent="1" vertex="1">
          <mxGeometry x="160" y="380" width="120" height="40" as="geometry" />
        </mxCell>
        <mxCell id="CcalwXsnnFqxF4iZxxZo-59" value="" style="edgeStyle=orthogonalEdgeStyle;rounded=0;orthogonalLoop=1;jettySize=auto;html=1;" parent="1" source="CcalwXsnnFqxF4iZxxZo-24" target="CcalwXsnnFqxF4iZxxZo-26" edge="1">
          <mxGeometry relative="1" as="geometry" />
        </mxCell>
        <mxCell id="CcalwXsnnFqxF4iZxxZo-24" value="Cola de pedido" style="whiteSpace=wrap;html=1;shadow=0;verticalAlign=middle;sketch=0;" parent="1" vertex="1">
          <mxGeometry x="480" y="560" width="120" height="40" as="geometry" />
        </mxCell>
        <mxCell id="CcalwXsnnFqxF4iZxxZo-60" style="edgeStyle=orthogonalEdgeStyle;rounded=0;orthogonalLoop=1;jettySize=auto;html=1;" parent="1" source="CcalwXsnnFqxF4iZxxZo-26" target="CcalwXsnnFqxF4iZxxZo-45" edge="1">
          <mxGeometry relative="1" as="geometry">
            <Array as="points">
              <mxPoint x="700" y="460" />
              <mxPoint x="540" y="460" />
            </Array>
          </mxGeometry>
        </mxCell>
        <mxCell id="CcalwXsnnFqxF4iZxxZo-26" value="&lt;span&gt;Se le toma la foto&lt;/span&gt;" style="whiteSpace=wrap;html=1;shadow=0;sketch=0;" parent="1" vertex="1">
          <mxGeometry x="640" y="560" width="120" height="40" as="geometry" />
        </mxCell>
        <mxCell id="CcalwXsnnFqxF4iZxxZo-68" style="edgeStyle=orthogonalEdgeStyle;rounded=0;orthogonalLoop=1;jettySize=auto;html=1;" parent="1" source="CcalwXsnnFqxF4iZxxZo-28" target="CcalwXsnnFqxF4iZxxZo-34" edge="1">
          <mxGeometry relative="1" as="geometry" />
        </mxCell>
        <mxCell id="CcalwXsnnFqxF4iZxxZo-28" value="Procesa la foto" style="whiteSpace=wrap;html=1;shadow=0;sketch=0;" parent="1" vertex="1">
          <mxGeometry x="640" y="280" width="120" height="40" as="geometry" />
        </mxCell>
        <mxCell id="CcalwXsnnFqxF4iZxxZo-34" value="Entrega pedido" style="whiteSpace=wrap;html=1;shadow=0;sketch=0;" parent="1" vertex="1">
          <mxGeometry x="800" y="380" width="120" height="40" as="geometry" />
        </mxCell>
        <mxCell id="CcalwXsnnFqxF4iZxxZo-47" value="" style="edgeStyle=orthogonalEdgeStyle;rounded=0;orthogonalLoop=1;jettySize=auto;html=1;" parent="1" source="CcalwXsnnFqxF4iZxxZo-41" target="CcalwXsnnFqxF4iZxxZo-45" edge="1">
          <mxGeometry relative="1" as="geometry" />
        </mxCell>
        <mxCell id="CcalwXsnnFqxF4iZxxZo-54" value="SI" style="edgeLabel;html=1;align=center;verticalAlign=middle;resizable=0;points=[];" parent="CcalwXsnnFqxF4iZxxZo-47" vertex="1" connectable="0">
          <mxGeometry x="-0.2138" y="-1" relative="1" as="geometry">
            <mxPoint as="offset" />
          </mxGeometry>
        </mxCell>
        <mxCell id="CcalwXsnnFqxF4iZxxZo-52" value="NO" style="edgeStyle=orthogonalEdgeStyle;rounded=0;orthogonalLoop=1;jettySize=auto;html=1;" parent="1" source="CcalwXsnnFqxF4iZxxZo-41" target="CcalwXsnnFqxF4iZxxZo-51" edge="1">
          <mxGeometry relative="1" as="geometry" />
        </mxCell>
        <mxCell id="CcalwXsnnFqxF4iZxxZo-41" value="Reclamar" style="rhombus;whiteSpace=wrap;html=1;shadow=0;sketch=0;" parent="1" vertex="1">
          <mxGeometry x="340" y="360" width="80" height="80" as="geometry" />
        </mxCell>
        <mxCell id="CcalwXsnnFqxF4iZxxZo-62" value="SI" style="edgeStyle=orthogonalEdgeStyle;rounded=0;orthogonalLoop=1;jettySize=auto;html=1;" parent="1" source="CcalwXsnnFqxF4iZxxZo-45" target="CcalwXsnnFqxF4iZxxZo-61" edge="1">
          <mxGeometry relative="1" as="geometry" />
        </mxCell>
        <mxCell id="CcalwXsnnFqxF4iZxxZo-45" value="Pagado" style="rhombus;whiteSpace=wrap;html=1;shadow=0;sketch=0;" parent="1" vertex="1">
          <mxGeometry x="500" y="360" width="80" height="80" as="geometry" />
        </mxCell>
        <mxCell id="CcalwXsnnFqxF4iZxxZo-56" value="" style="edgeStyle=orthogonalEdgeStyle;rounded=0;orthogonalLoop=1;jettySize=auto;html=1;" parent="1" source="CcalwXsnnFqxF4iZxxZo-51" target="CcalwXsnnFqxF4iZxxZo-55" edge="1">
          <mxGeometry relative="1" as="geometry" />
        </mxCell>
        <mxCell id="CcalwXsnnFqxF4iZxxZo-58" style="edgeStyle=orthogonalEdgeStyle;rounded=0;orthogonalLoop=1;jettySize=auto;html=1;entryX=0;entryY=0.5;entryDx=0;entryDy=0;" parent="1" source="CcalwXsnnFqxF4iZxxZo-51" target="CcalwXsnnFqxF4iZxxZo-24" edge="1">
          <mxGeometry relative="1" as="geometry" />
        </mxCell>
        <mxCell id="CcalwXsnnFqxF4iZxxZo-51" value="Toma de datos del usuario" style="whiteSpace=wrap;html=1;shadow=0;verticalAlign=middle;sketch=0;" parent="1" vertex="1">
          <mxGeometry x="320" y="480" width="120" height="40" as="geometry" />
        </mxCell>
        <mxCell id="CcalwXsnnFqxF4iZxxZo-57" value="" style="edgeStyle=orthogonalEdgeStyle;rounded=0;orthogonalLoop=1;jettySize=auto;html=1;" parent="1" source="CcalwXsnnFqxF4iZxxZo-55" target="CcalwXsnnFqxF4iZxxZo-45" edge="1">
          <mxGeometry relative="1" as="geometry" />
        </mxCell>
        <mxCell id="CcalwXsnnFqxF4iZxxZo-55" value="GeneraciÃ³n de cobro" style="whiteSpace=wrap;html=1;shadow=0;verticalAlign=middle;sketch=0;" parent="1" vertex="1">
          <mxGeometry x="480" y="480" width="120" height="40" as="geometry" />
        </mxCell>
        <mxCell id="CcalwXsnnFqxF4iZxxZo-64" value="" style="edgeStyle=orthogonalEdgeStyle;rounded=0;orthogonalLoop=1;jettySize=auto;html=1;" parent="1" source="CcalwXsnnFqxF4iZxxZo-61" target="CcalwXsnnFqxF4iZxxZo-28" edge="1">
          <mxGeometry relative="1" as="geometry" />
        </mxCell>
        <mxCell id="CcalwXsnnFqxF4iZxxZo-65" value="NO" style="edgeLabel;html=1;align=center;verticalAlign=middle;resizable=0;points=[];" parent="CcalwXsnnFqxF4iZxxZo-64" vertex="1" connectable="0">
          <mxGeometry x="-0.3741" y="1" relative="1" as="geometry">
            <mxPoint as="offset" />
          </mxGeometry>
        </mxCell>
        <mxCell id="CcalwXsnnFqxF4iZxxZo-66" value="" style="edgeStyle=orthogonalEdgeStyle;rounded=0;orthogonalLoop=1;jettySize=auto;html=1;" parent="1" source="CcalwXsnnFqxF4iZxxZo-61" target="CcalwXsnnFqxF4iZxxZo-34" edge="1">
          <mxGeometry relative="1" as="geometry" />
        </mxCell>
        <mxCell id="CcalwXsnnFqxF4iZxxZo-67" value="SI" style="edgeLabel;html=1;align=center;verticalAlign=middle;resizable=0;points=[];" parent="CcalwXsnnFqxF4iZxxZo-66" vertex="1" connectable="0">
          <mxGeometry x="-0.1586" relative="1" as="geometry">
            <mxPoint as="offset" />
          </mxGeometry>
        </mxCell>
        <mxCell id="CcalwXsnnFqxF4iZxxZo-61" value="Pedido listo" style="rhombus;whiteSpace=wrap;html=1;shadow=0;sketch=0;" parent="1" vertex="1">
          <mxGeometry x="660" y="360" width="80" height="80" as="geometry" />
        </mxCell>
        <mxCell id="CcalwXsnnFqxF4iZxxZo-71" value="Intent" style="swimlane;shadow=0;sketch=0;verticalAlign=middle;startSize=30;" parent="1" vertex="1">
          <mxGeometry x="240" y="80" width="240" height="240" as="geometry" />
        </mxCell>
        <mxCell id="CcalwXsnnFqxF4iZxxZo-73" value="Access Level" style="rounded=0;whiteSpace=wrap;html=1;shadow=0;sketch=0;verticalAlign=middle;rotation=-90;" parent="CcalwXsnnFqxF4iZxxZo-71" vertex="1">
          <mxGeometry x="-85" y="115" width="210" height="40" as="geometry" />
        </mxCell>
        <mxCell id="CcalwXsnnFqxF4iZxxZo-74" value="Action" style="rounded=1;whiteSpace=wrap;html=1;shadow=0;sketch=0;" parent="CcalwXsnnFqxF4iZxxZo-71" vertex="1">
          <mxGeometry x="50" y="40" width="80" height="40" as="geometry" />
        </mxCell>
        <mxCell id="CcalwXsnnFqxF4iZxxZo-13" value="Validation" style="rounded=1;whiteSpace=wrap;html=1;shadow=0;sketch=0;" parent="CcalwXsnnFqxF4iZxxZo-71" vertex="1">
          <mxGeometry x="150" y="40" width="80" height="40" as="geometry" />
        </mxCell>
        <mxCell id="CcalwXsnnFqxF4iZxxZo-75" value="Action" style="rounded=1;whiteSpace=wrap;html=1;shadow=0;sketch=0;" parent="CcalwXsnnFqxF4iZxxZo-71" vertex="1">
          <mxGeometry x="50" y="100" width="80" height="40" as="geometry" />
        </mxCell>
        <mxCell id="CcalwXsnnFqxF4iZxxZo-76" value="Module" style="shape=process;whiteSpace=wrap;html=1;backgroundOutline=1;rounded=1;shadow=0;sketch=0;" parent="1" vertex="1">
          <mxGeometry x="520" y="180" width="80" height="40" as="geometry" />
        </mxCell>
        <mxCell id="CcalwXsnnFqxF4iZxxZo-77" value="" style="edgeStyle=orthogonalEdgeStyle;rounded=0;orthogonalLoop=1;jettySize=auto;html=1;" parent="1" source="CcalwXsnnFqxF4iZxxZo-75" target="CcalwXsnnFqxF4iZxxZo-76" edge="1">
          <mxGeometry relative="1" as="geometry" />
        </mxCell>
      </root>
    </mxGraphModel>
  </diagram>
  <diagram id="p-CtQt_nzb0ihVITCSV3" name="PÃ¡gina-2">
    <mxGraphModel dx="1434" dy="764" grid="1" gridSize="10" guides="1" tooltips="1" connect="1" arrows="1" fold="1" page="1" pageScale="1" pageWidth="827" pageHeight="1169" math="0" shadow="0">
      <root>
        <mxCell id="0" />
        <mxCell id="1" parent="0" />
        <mxCell id="UwsNSL_1B4MyIvzojw84-42" value="FrontEnd" style="swimlane;fontStyle=0;childLayout=stackLayout;horizontal=1;startSize=30;horizontalStack=0;resizeParent=1;resizeParentMax=0;resizeLast=0;collapsible=1;marginBottom=0;whiteSpace=wrap;html=1;" vertex="1" parent="1">
          <mxGeometry x="40" y="40" width="200" height="150" as="geometry" />
        </mxCell>
        <mxCell id="UwsNSL_1B4MyIvzojw84-43" value="Get data" style="text;strokeColor=none;fillColor=none;align=left;verticalAlign=middle;spacingLeft=4;spacingRight=4;overflow=hidden;points=[[0,0.5],[1,0.5]];portConstraint=eastwest;rotatable=0;whiteSpace=wrap;html=1;" vertex="1" parent="UwsNSL_1B4MyIvzojw84-42">
          <mxGeometry y="30" width="200" height="30" as="geometry" />
        </mxCell>
        <mxCell id="UwsNSL_1B4MyIvzojw84-44" value="Sent data" style="text;strokeColor=none;fillColor=none;align=left;verticalAlign=middle;spacingLeft=4;spacingRight=4;overflow=hidden;points=[[0,0.5],[1,0.5]];portConstraint=eastwest;rotatable=0;whiteSpace=wrap;html=1;" vertex="1" parent="UwsNSL_1B4MyIvzojw84-42">
          <mxGeometry y="60" width="200" height="30" as="geometry" />
        </mxCell>
        <mxCell id="UwsNSL_1B4MyIvzojw84-45" value="Validate inputs" style="text;strokeColor=none;fillColor=none;align=left;verticalAlign=middle;spacingLeft=4;spacingRight=4;overflow=hidden;points=[[0,0.5],[1,0.5]];portConstraint=eastwest;rotatable=0;whiteSpace=wrap;html=1;" vertex="1" parent="UwsNSL_1B4MyIvzojw84-42">
          <mxGeometry y="90" width="200" height="30" as="geometry" />
        </mxCell>
        <mxCell id="UwsNSL_1B4MyIvzojw84-46" value="Compute fields" style="text;strokeColor=none;fillColor=none;align=left;verticalAlign=middle;spacingLeft=4;spacingRight=4;overflow=hidden;points=[[0,0.5],[1,0.5]];portConstraint=eastwest;rotatable=0;whiteSpace=wrap;html=1;" vertex="1" parent="UwsNSL_1B4MyIvzojw84-42">
          <mxGeometry y="120" width="200" height="30" as="geometry" />
        </mxCell>
        <mxCell id="UwsNSL_1B4MyIvzojw84-47" value="Back End" style="swimlane;fontStyle=0;childLayout=stackLayout;horizontal=1;startSize=30;horizontalStack=0;resizeParent=1;resizeParentMax=0;resizeLast=0;collapsible=1;marginBottom=0;whiteSpace=wrap;html=1;" vertex="1" parent="1">
          <mxGeometry x="320" y="40" width="240" height="120" as="geometry" />
        </mxCell>
        <mxCell id="UwsNSL_1B4MyIvzojw84-48" value="Item 1" style="text;strokeColor=none;fillColor=none;align=left;verticalAlign=middle;spacingLeft=4;spacingRight=4;overflow=hidden;points=[[0,0.5],[1,0.5]];portConstraint=eastwest;rotatable=0;whiteSpace=wrap;html=1;" vertex="1" parent="UwsNSL_1B4MyIvzojw84-47">
          <mxGeometry y="30" width="240" height="30" as="geometry" />
        </mxCell>
        <mxCell id="UwsNSL_1B4MyIvzojw84-49" value="Item 2" style="text;strokeColor=none;fillColor=none;align=left;verticalAlign=middle;spacingLeft=4;spacingRight=4;overflow=hidden;points=[[0,0.5],[1,0.5]];portConstraint=eastwest;rotatable=0;whiteSpace=wrap;html=1;" vertex="1" parent="UwsNSL_1B4MyIvzojw84-47">
          <mxGeometry y="60" width="240" height="30" as="geometry" />
        </mxCell>
        <mxCell id="UwsNSL_1B4MyIvzojw84-50" value="Item 3" style="text;strokeColor=none;fillColor=none;align=left;verticalAlign=middle;spacingLeft=4;spacingRight=4;overflow=hidden;points=[[0,0.5],[1,0.5]];portConstraint=eastwest;rotatable=0;whiteSpace=wrap;html=1;" vertex="1" parent="UwsNSL_1B4MyIvzojw84-47">
          <mxGeometry y="90" width="240" height="30" as="geometry" />
        </mxCell>
      </root>
    </mxGraphModel>
  </diagram>
</mxfile>
